<svg width="1400" height="980" viewBox="0 0 1400 980" fill="none" xmlns="http://www.w3.org/2000/svg">
  <defs>
    <linearGradient id="bg" x1="80" y1="40" x2="1310" y2="920" gradientUnits="userSpaceOnUse">
      <stop stop-color="#13365A"/>
      <stop offset="0.55" stop-color="#234B74"/>
      <stop offset="1" stop-color="#E9EEF5"/>
    </linearGradient>
    <linearGradient id="panel" x1="86" y1="34" x2="1320" y2="190" gradientUnits="userSpaceOnUse">
      <stop stop-color="#163A61"/>
      <stop offset="1" stop-color="#355F8D"/>
    </linearGradient>
    <linearGradient id="glass" x1="0" y1="0" x2="1" y2="1">
      <stop stop-color="white" stop-opacity="0.6"/>
      <stop offset="1" stop-color="white" stop-opacity="0.05"/>
    </linearGradient>
    <filter id="shadow" x="0" y="0" width="1400" height="980" filterUnits="userSpaceOnUse" color-interpolation-filters="sRGB">
      <feDropShadow dx="0" dy="24" stdDeviation="28" flood-color="#081B2E" flood-opacity="0.32"/>
    </filter>
  </defs>

  <rect width="1400" height="980" rx="36" fill="url(#bg)"/>
  <path d="M0 0H1400V170C1212 258 987 286 724 254C477 226 235 165 0 144V0Z" fill="white" fill-opacity="0.05"/>
  <path d="M0 980V770C165 712 364 684 596 698C878 715 1122 810 1400 810V980H0Z" fill="#AFC3D5" fill-opacity="0.22"/>

  <g opacity="0.34" stroke="#A6C4DF">
    <path d="M40 88L172 6"/>
    <path d="M30 132L214 12"/>
    <path d="M1260 112L1380 22"/>
    <path d="M1186 156L1364 30"/>
    <path d="M80 440H240"/>
    <path d="M1110 392V572"/>
    <path d="M1180 392V572"/>
    <path d="M1250 392V572"/>
  </g>

  <g filter="url(#shadow)">
    <rect x="18" y="16" width="1364" height="128" rx="26" fill="url(#panel)" stroke="url(#glass)" stroke-width="4"/>
    <path d="M1200 16H1382V144H1094L1200 16Z" fill="white" fill-opacity="0.08"/>
    <text x="700" y="96" text-anchor="middle" font-family="'Hiragino Mincho ProN', 'Yu Mincho', serif" font-size="64" font-weight="700" fill="#D9C29A">レッスンの風景</text>
  </g>

  <rect x="38" y="172" width="826" height="554" rx="22" fill="#0A1520" fill-opacity="0.65" stroke="rgba(255,255,255,0.25)"/>
  <rect x="38" y="172" width="826" height="72" rx="22" fill="#152634"/>
  <circle cx="76" cy="208" r="10" fill="#F56A5D"/>
  <circle cx="106" cy="208" r="10" fill="#F4B23C"/>
  <circle cx="136" cy="208" r="10" fill="#5AC26A"/>
  <rect x="188" y="194" width="490" height="28" rx="14" fill="#203646"/>
  <text x="84" y="208" font-family="'Hiragino Sans', 'Yu Gothic', sans-serif" font-size="10" fill="transparent">.</text>

  <rect x="40" y="244" width="822" height="478" rx="0" fill="#F8F7F2"/>
  <text x="450" y="324" text-anchor="middle" font-family="'Georgia', serif" font-size="42" font-weight="700" fill="#C3A977">EIMARI SOUND LAB</text>
  <text x="450" y="370" text-anchor="middle" font-family="'Hiragino Mincho ProN', 'Yu Mincho', serif" font-size="58" font-weight="700" fill="#C3A977">Labではこれらの発音記号をカバーします</text>

  <g stroke="#D1C6B3" stroke-width="2" opacity="0.75">
    <path d="M74 556C90 550 102 524 114 438C126 524 138 550 154 556C138 562 126 588 114 674C102 588 90 562 74 556Z"/>
    <path d="M726 556C742 550 754 524 766 438C778 524 790 550 806 556C790 562 778 588 766 674C754 588 742 562 726 556Z"/>
  </g>

  <g font-family="'Arial', sans-serif" font-size="38" font-weight="700" text-anchor="middle">
    <g fill="#B66A54" stroke="#B66A54">
      <circle cx="182" cy="474" r="38" fill="white"/><text x="182" y="488">i</text>
      <circle cx="280" cy="474" r="38" fill="white"/><text x="280" y="488">I</text>
      <circle cx="378" cy="474" r="38" fill="white"/><text x="378" y="488">ɛ</text>
      <circle cx="476" cy="474" r="38" fill="white"/><text x="476" y="488">æ</text>
      <circle cx="574" cy="474" r="38" fill="white"/><text x="574" y="488">ɑ</text>
      <circle cx="672" cy="474" r="38" fill="white"/><text x="672" y="488">ɔ</text>
      <circle cx="770" cy="474" r="38" fill="white"/><text x="770" y="488">u</text>
      <circle cx="182" cy="566" r="38" fill="white"/><text x="182" y="580">ə</text>
      <circle cx="280" cy="566" r="38" fill="white"/><text x="280" y="580">ʌ</text>
      <circle cx="378" cy="566" r="38" fill="white"/><text x="378" y="580">ɚ</text>
      <circle cx="476" cy="566" r="38" fill="white"/><text x="476" y="580">eɪ</text>
      <circle cx="574" cy="566" r="38" fill="white"/><text x="574" y="580">oʊ</text>
      <circle cx="672" cy="566" r="38" fill="white"/><text x="672" y="580">aɪ</text>
      <circle cx="770" cy="566" r="38" fill="white"/><text x="770" y="580">aʊ</text>
    </g>
    <g fill="#67749F" stroke="#67749F">
      <circle cx="182" cy="658" r="38" fill="white"/><text x="182" y="672">p</text>
      <circle cx="280" cy="658" r="38" fill="white"/><text x="280" y="672">b</text>
      <circle cx="378" cy="658" r="38" fill="white"/><text x="378" y="672">t</text>
      <circle cx="476" cy="658" r="38" fill="white"/><text x="476" y="672">d</text>
      <circle cx="574" cy="658" r="38" fill="white"/><text x="574" y="672">k</text>
      <circle cx="672" cy="658" r="38" fill="white"/><text x="672" y="672">g</text>
      <circle cx="770" cy="658" r="38" fill="white"/><text x="770" y="672">f</text>
    </g>
  </g>

  <rect x="874" y="190" width="236" height="520" rx="24" fill="#DAE5F0" fill-opacity="0.38" stroke="rgba(255,255,255,0.4)"/>
  <rect x="898" y="214" width="188" height="182" rx="12" fill="#EAF1F7"/>
  <path d="M898 354H1086V396H898V354Z" fill="#D9E5EF"/>
  <path d="M922 360C960 310 1010 306 1062 328V396H922V360Z" fill="#B9CCD8"/>
  <rect x="934" y="450" width="146" height="174" rx="14" fill="#314D69"/>
  <path d="M934 586H1080V624H934V586Z" fill="#1E344C"/>
  <path d="M980 612C990 584 998 566 1010 544C1020 566 1028 584 1040 612H980Z" fill="#FFBB71"/>

  <g filter="url(#shadow)">
    <rect x="834" y="392" width="494" height="302" rx="28" fill="#C8D5E4" fill-opacity="0.18" stroke="url(#glass)" stroke-width="3"/>
    <rect x="875" y="430" width="412" height="226" rx="24" fill="#F0F4F8"/>
    <path d="M875 500H1002V656H875V500Z" fill="#D4E0EA"/>
    <path d="M1002 470H1287V656H1002V470Z" fill="#EFF4F8"/>
    <path d="M1090 432H1287V480H1046L1090 432Z" fill="white" fill-opacity="0.45"/>
    <ellipse cx="1122" cy="544" rx="90" ry="110" fill="#EBC3AA"/>
    <path d="M1048 518C1048 470 1082 438 1124 438C1166 438 1200 470 1200 518V610H1048V518Z" fill="#C8A46B"/>
    <path d="M1076 530C1090 544 1104 550 1122 550C1142 550 1156 544 1170 530" stroke="#8D6643" stroke-width="5" stroke-linecap="round"/>
    <circle cx="1092" cy="524" r="8" fill="#3B2A24"/>
    <circle cx="1152" cy="524" r="8" fill="#3B2A24"/>
    <path d="M1146 584C1138 594 1130 598 1120 598C1110 598 1102 594 1094 584" stroke="#B77568" stroke-width="4" stroke-linecap="round"/>
  </g>

  <rect x="92" y="778" width="412" height="110" rx="22" fill="#0C2135" fill-opacity="0.6" stroke="rgba(255,255,255,0.24)"/>
  <text x="124" y="828" font-family="'Hiragino Sans', 'Yu Gothic', sans-serif" font-size="22" font-weight="700" fill="#F1E5CF">Vowel Focus</text>
  <text x="124" y="862" font-family="'Hiragino Sans', 'Yu Gothic', sans-serif" font-size="18" fill="#D6E3F0">発見した課題を、復習・修正・確認で定着へつなげる。</text>

  <rect x="568" y="828" width="264" height="58" rx="29" fill="#F7F3EB" fill-opacity="0.22" stroke="rgba(255,255,255,0.24)"/>
  <circle cx="646" cy="857" r="13" fill="#F7F3EB"/>
  <rect x="752" y="846" width="26" height="22" rx="4" fill="#F7F3EB"/>
  <rect x="792" y="846" width="26" height="22" rx="13" fill="#F7F3EB"/>
</svg>
