<svg width="1200" height="800" viewBox="0 0 1200 800" fill="none" xmlns="http://www.w3.org/2000/svg">
  <defs>
    <linearGradient id="bg" x1="0" y1="0" x2="1200" y2="800" gradientUnits="userSpaceOnUse">
      <stop stop-color="#FFF4E6"/>
      <stop offset="1" stop-color="#DBF5EF"/>
    </linearGradient>
  </defs>
  <rect width="1200" height="800" fill="url(#bg)"/>
  <rect x="90" y="90" width="1020" height="620" rx="32" fill="#0F3557"/>
  <rect x="140" y="150" width="410" height="500" rx="24" fill="#FDF6EC"/>
  <rect x="180" y="230" width="330" height="24" rx="12" fill="#D6E5F3"/>
  <rect x="180" y="280" width="260" height="24" rx="12" fill="#D6E5F3"/>
  <circle cx="345" cy="430" r="126" fill="#FFD7A5"/>
  <path d="M254 430C254 380 295 340 345 340V340C395 340 436 380 436 430V496H254V430Z" fill="#E88D5B"/>
  <rect x="610" y="160" width="450" height="460" rx="24" fill="#FDF6EC"/>
  <rect x="658" y="230" width="354" height="22" rx="11" fill="#CBEADB"/>
  <rect x="658" y="275" width="300" height="22" rx="11" fill="#CBEADB"/>
  <rect x="658" y="320" width="330" height="22" rx="11" fill="#CBEADB"/>
  <rect x="658" y="390" width="180" height="160" rx="16" fill="#F7C98E"/>
  <rect x="860" y="390" width="152" height="160" rx="16" fill="#B0DCD0"/>
  <text x="600" y="700" font-family="'Hiragino Sans', 'Yu Gothic', sans-serif" font-size="38" fill="#FDF6EC" font-weight="700">Lesson Atmosphere</text>
</svg>
